<?xml version="1.0" encoding="utf-8"?>
<!-- Generator: Adobe Illustrator 26.2.1, SVG Export Plug-In . SVG Version: 6.00 Build 0)  -->
<svg version="1.1" id="Layer_1" xmlns="http://www.w3.org/2000/svg" xmlns:xlink="http://www.w3.org/1999/xlink" x="0px" y="0px"
	 viewBox="0 0 1314 558" style="enable-background:new 0 0 1314 558;" xml:space="preserve">
<style type="text/css">
	.st0{fill:#FFBFB6;}
	.st1{fill:#C9462E;}
	.st2{fill:#1A486B;}
	.st3{fill:#D08E8E;}
</style>
<g>
	<g>
		<path class="st0" d="M1048.5,25H263.5C132,25,25,132,25,263.5v29.1C25,424,132,531,263.5,531h785.1C1180,531,1287,424,1287,292.5
			v-29.1C1287,132,1180,25,1048.5,25z"/>
		<path class="st1" d="M1234.8,77.2C1185.1,27.4,1118.9,0,1048.5,0H263.5C193.1,0,126.9,27.4,77.2,77.2C27.4,126.9,0,193.1,0,263.5
			v29.1c0,70.4,27.4,136.5,77.2,186.3c49.8,49.8,115.9,77.2,186.3,77.2h785.1c70.4,0,136.5-27.4,186.3-77.2s77.2-115.9,77.2-186.3
			v-29.1C1312,193.1,1284.6,126.9,1234.8,77.2z M1287,292.5C1287,424,1180,531,1048.5,531H263.5C132,531,25,424,25,292.5v-29.1
			C25,132,132,25,263.5,25h785.1C1180,25,1287,132,1287,263.5V292.5z"/>
	</g>
	<g>
		<g>
			<path class="st2" d="M237.4,305.8c-5.6,0-10.9-1-15.9-3.1c-4.9-2-9.3-5-13-9c-3.7-4-6.7-8.9-8.7-14.7c-2.1-5.8-3.1-12.5-3.1-20
				c0-9.9,1.8-18.4,5.5-25.5c3.7-7.1,8.6-12.5,15-16.2c6.3-3.7,13.5-5.6,21.4-5.6c5.6,0,10.7,1.2,15.1,3.5c4.4,2.3,8,4.9,10.8,7.9
				l-8.9,10c-2.2-2.3-4.7-4.1-7.5-5.4c-2.8-1.3-6-1.9-9.6-1.9c-5,0-9.4,1.3-13.3,4c-3.8,2.6-6.8,6.4-8.9,11.3
				c-2.1,4.9-3.2,10.8-3.2,17.6c0,6.8,1.1,12.8,3.2,17.8c2.1,5,5.1,8.8,9,11.4c3.9,2.6,8.4,4,13.6,4c3.8,0,7.2-0.8,10.1-2.4
				c3-1.6,5.7-3.8,8.3-6.6l8.9,9.9c-3.6,4.3-7.8,7.5-12.6,9.8C248.9,304.6,243.5,305.8,237.4,305.8z"/>
			<path class="st2" d="M304.2,305.8c-4.4,0-8.4-0.9-11.8-2.6c-3.4-1.7-6.1-4-8-7c-1.9-3-2.9-6.4-2.9-10.4c0-7.6,3.6-13.4,10.9-17.4
				c7.3-4,19.3-6.6,36.1-7.8c-0.2-2.5-0.9-4.8-2-6.8c-1.2-2-2.9-3.6-5.2-4.8c-2.3-1.2-5.3-1.7-9-1.7c-2.6,0-5.1,0.3-7.6,1
				c-2.5,0.6-5,1.5-7.4,2.6c-2.5,1.1-4.9,2.3-7.3,3.6l-5.8-10.7c2.8-1.7,5.8-3.2,9.2-4.6c3.3-1.4,6.8-2.6,10.5-3.5
				c3.7-0.9,7.5-1.3,11.4-1.3c6.4,0,11.7,1.1,16,3.4c4.3,2.3,7.6,5.6,9.9,10c2.3,4.4,3.4,9.7,3.4,16v40.4h-13l-1.2-8.5h-0.4
				c-3.6,2.8-7.6,5.2-12,7.1C313.3,304.8,308.8,305.8,304.2,305.8z M309,293.3c3.4,0,6.7-0.8,9.9-2.3s6.4-3.5,9.5-6v-14.4
				c-8.1,0.6-14.5,1.5-19.1,2.7c-4.6,1.2-7.9,2.8-9.7,4.8c-1.9,1.9-2.8,4.1-2.8,6.5c0,2,0.6,3.7,1.7,5c1.1,1.3,2.6,2.2,4.4,2.8
				C304.7,293,306.7,293.3,309,293.3z"/>
			<path class="st2" d="M366.2,304.1V236h13.2l1.2,10.3h0.6c3.2-3.3,6.8-6.2,10.8-8.5c3.9-2.3,8.5-3.5,13.8-3.5
				c7.9,0,13.6,2.4,17.3,7.2c3.7,4.8,5.6,11.6,5.6,20.4v42.2h-16.1V264c0-5.5-1-9.5-2.9-12.1c-1.9-2.6-5.2-3.9-9.9-3.9
				c-3.3,0-6.3,0.8-8.9,2.4c-2.6,1.6-5.5,4-8.6,7.2v46.5H366.2z"/>
			<path class="st2" d="M485.8,305.8c-7.1,0-13.5-1.4-19.2-4.2c-5.7-2.8-10.2-6.9-13.5-12.2c-3.3-5.3-4.9-11.7-4.9-19.2
				c0-7.6,1.8-14,5.3-19.4c3.6-5.3,8.3-9.4,14.2-12.2c5.9-2.8,12.3-4.2,19.1-4.2c5.5,0,10.5,0.9,14.7,2.7c4.3,1.8,7.8,4.1,10.5,6.9
				l-7.6,10c-2.7-2.1-5.4-3.7-8.1-4.9c-2.7-1.1-5.6-1.7-8.7-1.7c-4.5,0-8.5,0.9-12,2.8c-3.5,1.9-6.2,4.6-8.1,8
				c-1.9,3.4-2.9,7.4-2.9,11.9c0,4.5,0.9,8.5,2.8,11.9c1.9,3.4,4.5,6.1,7.9,7.9c3.4,1.9,7.3,2.8,11.9,2.8c3.9,0,7.4-0.7,10.7-2.2
				c3.2-1.5,6.2-3.2,8.7-5.3l6.7,10.3c-3.9,3.3-8.2,5.9-13,7.6C495.6,304.9,490.7,305.8,485.8,305.8z"/>
			<path class="st2" d="M567.1,305.8c-6.9,0-13.2-1.4-18.9-4.2c-5.6-2.8-10.1-6.9-13.5-12.3c-3.3-5.4-5-11.8-5-19.3
				c0-7.4,1.7-13.8,5-19.1c3.3-5.3,7.7-9.4,13-12.3c5.4-2.9,11.1-4.3,17.2-4.3c6.8,0,12.5,1.4,17.1,4.2c4.7,2.8,8.2,6.6,10.7,11.4
				c2.4,4.9,3.7,10.4,3.7,16.7c0,1.6,0,3.1-0.1,4.6c-0.1,1.5-0.2,2.6-0.4,3.5h-54.7v-11.2h44.3l-3.1,3.5c0-6.8-1.5-11.8-4.5-15.3
				c-3-3.4-7.2-5.1-12.6-5.1c-3.8,0-7.2,0.9-10.2,2.7c-3,1.8-5.4,4.4-7.1,7.9c-1.8,3.5-2.6,7.7-2.6,12.7c0,5.4,1,9.8,3,13.3
				c2,3.5,4.8,6.1,8.3,7.8c3.6,1.7,7.7,2.6,12.4,2.6c3.6,0,6.9-0.5,10-1.5c3.1-1,6.1-2.4,9.2-4.2l5.4,10c-3.6,2.3-7.7,4.2-12.3,5.8
				C576.9,305,572.1,305.8,567.1,305.8z"/>
			<path class="st2" d="M660.2,305.8c-8,0-14-2.3-18.1-7c-4.1-4.7-6.2-11.2-6.2-19.5v-60.5h-22.2v-12.6h38.2v74
				c0,4.6,1.2,7.9,3.5,9.9c2.4,1.9,5.2,2.9,8.7,2.9c1.8,0,3.6-0.2,5.4-0.7c1.8-0.5,3.9-1.2,6.2-2.1l3.7,11.8c-3.3,1.1-6.4,2-9.2,2.8
				S664.2,305.8,660.2,305.8z"/>
		</g>
	</g>
	<g>
		<path class="st3" d="M984.5,62c-119.3,0-216,96.7-216,216s96.7,216,216,216s216-96.7,216-216S1103.8,62,984.5,62z M1111.8,354.4
			l-50.9,50.9l-76.4-76.4l-76.4,76.4l-50.9-50.9l76.4-76.4l-76.4-76.4l50.9-50.9l76.4,76.4l76.4-76.4l50.9,50.9l-76.4,76.4
			L1111.8,354.4z"/>
		<polygon class="st1" points="1060.9,150.7 984.5,227.1 908.1,150.7 857.2,201.6 933.6,278 857.2,354.4 908.1,405.3 984.5,328.9 
			1060.9,405.3 1111.8,354.4 1035.4,278 1111.8,201.6 		"/>
	</g>
</g>
</svg>
