<?xml version="1.0" encoding="utf-8"?>
<!-- Generator: Adobe Illustrator 26.2.1, SVG Export Plug-In . SVG Version: 6.00 Build 0)  -->
<svg version="1.1" id="Layer_1" xmlns="http://www.w3.org/2000/svg" xmlns:xlink="http://www.w3.org/1999/xlink" x="0px" y="0px"
	 viewBox="0 0 1314 558" style="enable-background:new 0 0 1314 558;" xml:space="preserve">
<style type="text/css">
	.st0{fill:#BBF9DD;}
	.st1{fill:#57C99A;}
	.st2{fill:#367D60;}
	.st3{fill:#1A486B;}
</style>
<g>
	<path class="st0" d="M1048.5,25H263.5C132,25,25,132,25,263.5v29.1C25,424,132,531,263.5,531h785.1C1180,531,1287,424,1287,292.5
		v-29.1C1287,132,1180,25,1048.5,25z M984.5,494c-119.3,0-216-96.7-216-216s96.7-216,216-216s216,96.7,216,216S1103.8,494,984.5,494
		z"/>
	<path class="st1" d="M1234.8,77.2C1185.1,27.4,1118.9,0,1048.5,0H263.5C193.1,0,126.9,27.4,77.2,77.2C27.4,126.9,0,193.1,0,263.5
		v29.1c0,70.4,27.4,136.5,77.2,186.3c49.8,49.8,115.9,77.2,186.3,77.2h785.1c70.4,0,136.5-27.4,186.3-77.2
		c49.8-49.8,77.2-115.9,77.2-186.3v-29.1C1312,193.1,1284.6,126.9,1234.8,77.2z M1287,292.5C1287,424,1180,531,1048.5,531H263.5
		C132,531,25,424,25,292.5v-29.1C25,132,132,25,263.5,25h785.1C1180,25,1287,132,1287,263.5V292.5z"/>
	<path class="st1" d="M984.5,62c-119.3,0-216,96.7-216,216s96.7,216,216,216s216-96.7,216-216S1103.8,62,984.5,62z M979.9,357.2
		L979.9,357.2l-50.8,51l-0.1-0.1l-0.1,0.1L878,357.3l0.1-0.1l-46.5-46.5l50.9-50.9l46.5,46.5l152.7-152.7l50.9,50.9L979.9,357.2z"/>
	<polygon class="st2" points="929,306.3 882.4,259.8 831.5,310.7 878,357.2 878,357.3 928.9,408.2 929,408.1 929,408.2 979.9,357.3 
		979.9,357.2 1132.5,204.5 1081.6,153.6 	"/>
</g>
<g>
	<g>
		<path class="st3" d="M160.6,305.8c-5.6,0-10.9-1-15.9-3.1c-5-2-9.3-5-13-9c-3.7-4-6.7-8.9-8.7-14.7c-2.1-5.8-3.1-12.5-3.1-20
			c0-9.9,1.8-18.4,5.5-25.5c3.7-7.1,8.6-12.5,15-16.2c6.3-3.7,13.5-5.6,21.4-5.6c5.6,0,10.7,1.2,15.1,3.5c4.4,2.3,8,4.9,10.8,7.9
			l-8.9,10c-2.2-2.3-4.7-4.1-7.5-5.4c-2.8-1.3-6-1.9-9.6-1.9c-5,0-9.4,1.3-13.3,4c-3.8,2.6-6.8,6.4-8.9,11.3
			c-2.1,4.9-3.2,10.8-3.2,17.6c0,6.8,1.1,12.8,3.2,17.8c2.1,5,5.1,8.8,9,11.4c3.9,2.6,8.4,4,13.6,4c3.8,0,7.2-0.8,10.1-2.4
			c3-1.6,5.7-3.8,8.3-6.6l8.9,9.9c-3.6,4.3-7.8,7.5-12.6,9.8C172,304.6,166.6,305.8,160.6,305.8z"/>
		<path class="st3" d="M236.4,305.8c-6,0-11.6-1.4-16.8-4.2c-5.2-2.8-9.4-6.9-12.6-12.2c-3.2-5.3-4.9-11.7-4.9-19.2
			c0-7.6,1.6-14,4.9-19.4c3.2-5.3,7.4-9.4,12.6-12.2c5.2-2.8,10.8-4.2,16.8-4.2c6,0,11.6,1.4,16.8,4.2c5.2,2.8,9.4,6.9,12.6,12.2
			c3.2,5.3,4.9,11.8,4.9,19.4c0,7.5-1.6,13.9-4.9,19.2c-3.2,5.3-7.4,9.4-12.6,12.2C248,304.3,242.4,305.8,236.4,305.8z M236.4,292.7
			c3.7,0,6.9-0.9,9.6-2.8c2.7-1.8,4.7-4.5,6.1-7.9c1.4-3.4,2.1-7.4,2.1-11.9c0-4.5-0.7-8.5-2.1-11.9c-1.4-3.4-3.4-6.1-6.1-8
			c-2.7-1.9-5.9-2.8-9.6-2.8c-3.7,0-6.9,0.9-9.5,2.8c-2.6,1.9-4.7,4.6-6.1,8c-1.4,3.4-2.2,7.4-2.2,11.9c0,4.5,0.7,8.5,2.2,11.9
			c1.4,3.4,3.5,6.1,6.1,7.9C229.5,291.8,232.7,292.7,236.4,292.7z"/>
		<path class="st3" d="M289.4,304.1V236h13.2l1.2,10.3h0.6c3.2-3.3,6.8-6.2,10.8-8.5c3.9-2.3,8.5-3.5,13.8-3.5
			c7.9,0,13.6,2.4,17.3,7.2c3.7,4.8,5.6,11.6,5.6,20.4v42.2h-16.1V264c0-5.5-1-9.5-2.9-12.1c-1.9-2.6-5.2-3.9-9.9-3.9
			c-3.3,0-6.3,0.8-8.9,2.4c-2.6,1.6-5.5,4-8.6,7.2v46.5H289.4z"/>
		<path class="st3" d="M374,248.6v-11.9l19.3-0.7h41.3v12.6H374z M392.9,304.1v-71.9c0-5.4,1-10.2,3.1-14.4c2-4.2,5.2-7.5,9.4-9.9
			c4.3-2.4,9.7-3.5,16.4-3.5c3.7,0,7.2,0.3,10.6,1c3.4,0.7,6.6,1.6,9.6,2.7l-3.3,11.8c-2.5-1-4.9-1.8-7.3-2.2
			c-2.4-0.5-4.9-0.7-7.7-0.7c-5.2,0-9,1.3-11.4,3.8c-2.4,2.5-3.6,6.2-3.6,11v72.2H392.9z"/>
		<path class="st3" d="M485.7,304.1v-55.4h-29.6V236h45.5v68.1H485.7z M492.5,223.5c-3.2,0-5.9-1-8.1-2.9c-2.2-1.9-3.3-4.5-3.3-7.8
			c0-3.2,1.1-5.8,3.3-7.8c2.2-2,4.9-3,8.1-3c3.3,0,6.1,1,8.2,3c2.1,2,3.2,4.6,3.2,7.8c0,3.2-1.1,5.8-3.2,7.8
			C498.6,222.5,495.8,223.5,492.5,223.5z"/>
		<path class="st3" d="M545.8,304.1V236H559l1.4,15.4h0.4c3.4-5.5,7.7-9.8,12.7-12.7c5-2.9,10.5-4.4,16.3-4.4c2.8,0,5.2,0.2,7.2,0.7
			c2,0.5,4,1.2,6,2.1l-3.3,13.5c-2.2-0.7-4.2-1.3-5.9-1.6c-1.7-0.3-3.9-0.5-6.5-0.5c-4.6,0-9.1,1.3-13.5,4c-4.4,2.7-8.3,7.4-11.9,14
			v37.6H545.8z"/>
		<path class="st3" d="M617.4,304.1V236h12.3l1.2,8.7h0.3c1.6-3.1,3.5-5.5,5.8-7.5c2.3-1.9,5.4-2.9,9.3-2.9c3.2,0,5.9,1,8,2.9
			c2.1,1.9,3.6,4.8,4.5,8.6c1.6-3.4,3.6-6.2,6-8.3c2.4-2.1,5.6-3.2,9.5-3.2c4.8,0,8.5,1.9,11.2,5.6c2.6,3.7,4,9,4,15.9v48.3H674
			v-47.2c0-6-1.8-9-5.3-9c-1.9,0-3.4,0.7-4.6,2.1c-1.2,1.4-2.6,3.6-4,6.5v47.6h-13.2v-47.2c0-3-0.4-5.2-1.3-6.7
			c-0.9-1.5-2.3-2.3-4.2-2.3c-1.8,0-3.3,0.7-4.6,2.1c-1.3,1.4-2.6,3.6-3.9,6.5v47.6H617.4z"/>
	</g>
</g>
</svg>
