<?xml version="1.0" encoding="utf-8"?>
<!-- Generator: Adobe Illustrator 26.2.1, SVG Export Plug-In . SVG Version: 6.00 Build 0)  -->
<svg version="1.1" id="Layer_1" xmlns="http://www.w3.org/2000/svg" xmlns:xlink="http://www.w3.org/1999/xlink" x="0px" y="0px"
	 viewBox="0 0 1000 1000" style="enable-background:new 0 0 1000 1000;" xml:space="preserve">
<style type="text/css">
	.st0{fill:#B8FCE1;}
	.st1{fill:#6DFDC3;}
</style>
<g>
	<path class="st0" d="M819.63,0H604.8H180.37C80.75,0,0,80.75,0,180.37v13.61l205.03,205.03l232.35-232.35l197.98,197.98
		l197.98,197.98L600.99,794.97L806.02,1000l-625.65,0c0,0,0.01,0,0.01,0h639.26c99.62,0,180.37-80.75,180.37-180.37V396.71V180.37
		C1000,80.75,919.25,0,819.63,0z"/>
	<path class="st0" d="M0,819.63c0,4.78,0.19,9.52,0.56,14.21L0,193.98V819.63z"/>
	<polygon class="st1" points="600.99,794.97 833.33,562.62 635.35,364.65 437.38,166.67 205.03,399.01 0,193.98 0.56,833.84 
		0.7,1000 180.36,1000 806.02,1000 	"/>
</g>
</svg>
