<?xml version="1.0" encoding="utf-8"?>
<!-- Generator: Adobe Illustrator 26.2.1, SVG Export Plug-In . SVG Version: 6.00 Build 0)  -->
<svg version="1.1" id="Layer_1" xmlns="http://www.w3.org/2000/svg" xmlns:xlink="http://www.w3.org/1999/xlink" x="0px" y="0px"
	 viewBox="0 0 1000 1000" style="enable-background:new 0 0 1000 1000;" xml:space="preserve">
<style type="text/css">
	.st0{fill:#367D60;}
	.st1{fill:#B8FCE1;}
	.st2{fill:#57C99A;}
</style>
<g>
	<path class="st0" d="M819.9,0H605.3H181.1C81.6,0,0.9,80.7,0.9,180.2v13.6l204.9,204.9L438,166.6l197.8,197.8l197.8,197.8
		L601.4,794.4l204.9,204.9H181.1c0,0,0,0,0,0h638.8c99.5,0,180.2-80.7,180.2-180.2V396.4V180.2C1000.2,80.7,919.5,0,819.9,0z"/>
	<path class="st1" d="M0.9,819.1c0,4.5,0.2,9,0.6,13.5L0.9,193.8V819.1z"/>
	<polygon class="st2" points="601.4,794.4 833.6,562.2 635.8,364.4 438,166.6 205.8,398.7 0.9,193.8 1.4,832.5 1.6,999.3 
		181.1,999.3 806.3,999.3 	"/>
</g>
</svg>
