<?xml version="1.0" encoding="utf-8"?>
<!-- Generator: Adobe Illustrator 26.2.1, SVG Export Plug-In . SVG Version: 6.00 Build 0)  -->
<svg version="1.1" id="Layer_1" xmlns="http://www.w3.org/2000/svg" xmlns:xlink="http://www.w3.org/1999/xlink" x="0px" y="0px"
	 viewBox="0 0 1000 1000" style="enable-background:new 0 0 1000 1000;" xml:space="preserve">
<style type="text/css">
	.st0{fill:#57C99A;}
	.st1{fill:#3AA0B0;}
	.st2{fill:#74A2AB;}
</style>
<g>
	<polygon class="st0" points="1000,805.9 1000,396.3 999.6,396.6 	"/>
	<path class="st1" d="M688.2,708.1l-0.4-0.4L562.3,833.2L364.2,635.1L166.1,437l232.5-232.5L193.4-0.7l411.1,0h0H179.8
		C80.1-0.7-0.7,80.1-0.7,179.8v639.7c0,99.7,80.8,180.5,180.5,180.5h639.7c99.7,0,180.5-80.8,180.5-180.5v-13.6L795.2,601.1
		L688.2,708.1z"/>
	<path class="st2" d="M999.4,166.3l0.2,230.3l0.4-0.4V179.8C1000,175.2,999.8,170.8,999.4,166.3z"/>
	<polygon class="st2" points="819.5,-0.7 819.5,-0.7 604.5,-0.7 604.5,-0.7 	"/>
	
		<rect x="665.8" y="654.2" transform="matrix(0.7071 -0.7071 0.7071 0.7071 -245.5645 715.9883)" class="st2" width="151.4" height="0.5"/>
	<polygon class="st0" points="999.4,166.3 999.3,-0.7 819.5,-0.7 604.5,-0.7 193.4,-0.7 398.6,204.5 166.1,437 364.2,635.1 
		562.3,833.2 687.8,707.8 794.8,600.7 795.2,601.1 1000,805.9 999.6,396.6 	"/>
</g>
</svg>
