<?xml version="1.0" encoding="utf-8"?>
<!-- Generator: Adobe Illustrator 26.2.1, SVG Export Plug-In . SVG Version: 6.00 Build 0)  -->
<svg version="1.1" id="Layer_1" xmlns="http://www.w3.org/2000/svg" xmlns:xlink="http://www.w3.org/1999/xlink" x="0px" y="0px"
	 viewBox="0 0 1000 1000" style="enable-background:new 0 0 1000 1000;" xml:space="preserve">
<style type="text/css">
	.st0{fill:#57C99A;}
	.st1{fill:#74A2AB;}
	.st2{fill:#3AA0B0;}
</style>
<g>
	<polygon class="st0" points="999.3,806 999.3,396.7 998.9,397.1 	"/>
	<path class="st0" d="M687.7,708.3l-0.4-0.4L561.9,833.3l-198-198l-198-198L398.3,205L193.3,0l410.8,0h0H179.7
		C80.1,0-0.7,80.8-0.7,180.4v639.3c0,99.6,80.8,180.4,180.4,180.4h639.3c99.6,0,180.4-80.8,180.4-180.4V806L794.6,601.4L687.7,708.3
		z"/>
	<path class="st1" d="M998.7,166.9l0.2,230.2l0.4-0.4V180.4C999.3,175.8,999.1,171.3,998.7,166.9z"/>
	<polygon class="st1" points="818.9,0 818.9,0 604.1,0 604.1,0 	"/>
	
		<rect x="665.3" y="654.4" transform="matrix(0.7071 -0.7071 0.7071 0.7071 -245.8895 715.6901)" class="st1" width="151.3" height="0.5"/>
	<polygon class="st2" points="998.7,166.9 998.6,0 818.9,0 604.1,0 193.3,0 398.3,205 166,437.4 363.9,635.4 561.9,833.3 687.3,708 
		794.3,601 794.6,601.4 999.3,806 998.9,397.1 	"/>
</g>
</svg>
