<?xml version="1.0" encoding="utf-8"?>
<!-- Generator: Adobe Illustrator 26.2.1, SVG Export Plug-In . SVG Version: 6.00 Build 0)  -->
<svg version="1.1" id="Layer_1" xmlns="http://www.w3.org/2000/svg" xmlns:xlink="http://www.w3.org/1999/xlink" x="0px" y="0px"
	 viewBox="0 0 1000 1000" style="enable-background:new 0 0 1000 1000;" xml:space="preserve">
<style type="text/css">
	.st0{fill:#74A2AB;}
	.st1{fill:#B8FCE1;}
</style>
<g>
	<path class="st0" d="M999.5,166.2L1000,806V396.7V180.4C1000,175.6,999.8,170.9,999.5,166.2z"/>
	<path class="st0" d="M795,601L562.6,833.4l-198-198l-198-198L399,205L194,0l625.7,0c0,0,0,0,0,0H604.8H180.4C80.8,0,0,80.8,0,180.4
		v639.3C0,919.3,80.8,1000,180.4,1000h639.3c99.6,0,180.4-80.8,180.4-180.4V806L795,601z"/>
	<polygon class="st1" points="999.5,166.2 999.3,0 819.7,0 194,0 399,205 166.7,437.4 364.7,635.4 562.6,833.4 795,601 1000,806 	
		"/>
</g>
</svg>
