<?xml version="1.0" standalone="no"?>
<!DOCTYPE svg PUBLIC "-//W3C//DTD SVG 20010904//EN"
 "http://www.w3.org/TR/2001/REC-SVG-20010904/DTD/svg10.dtd">
<svg version="1.0" xmlns="http://www.w3.org/2000/svg"
 width="700.000000pt" height="700.000000pt" viewBox="0 0 700.000000 700.000000"
 preserveAspectRatio="xMidYMid meet">
<metadata>
Created by potrace 1.14, written by Peter Selinger 2001-2017
</metadata>
<g transform="translate(0.000000,700.000000) scale(0.100000,-0.100000)"
fill="#000000" stroke="none">
<path d="M1115 6993 c-16 -2 -73 -13 -125 -24 -428 -93 -790 -419 -925 -833
-13 -40 -32 -111 -42 -157 -17 -80 -18 -222 -18 -3029 l0 -2945 2920 -2 c1868
-1 2942 2 2980 8 91 15 95 16 163 33 215 56 425 183 589 356 172 180 300 446
331 688 4 31 7 1373 7 2982 l0 2925 -2925 1 c-1609 0 -2938 -1 -2955 -3z"/>
</g>
</svg>
